<mxfile modified="2024-07-16T14:07:08.078Z" host="app.diagrams.net" agent="Mozilla/5.0 (X11; Ubuntu; Linux x86_64; rv:128.0) Gecko/20100101 Firefox/128.0" etag="c0Yf23reBrTjHWgLl9Cg" version="24.6.5" type="github">
  <diagram id="Ht1M8jgEwFfnCIfOTk4-" name="Page-1">
    <mxGraphModel dx="866" dy="1368" grid="1" gridSize="10" guides="1" tooltips="1" connect="1" arrows="1" fold="1" page="1" pageScale="1" pageWidth="1169" pageHeight="827" math="0" shadow="0">
      <root>
        <mxCell id="0" />
        <mxCell id="1" parent="0" />
        <mxCell id="Bgxkm3oLTfypVc-OCxU6-2" value="&lt;div&gt;github.com/your/repo&lt;/div&gt;" style="swimlane;whiteSpace=wrap;html=1;" vertex="1" parent="1">
          <mxGeometry x="18" y="-720" width="200" height="90" as="geometry" />
        </mxCell>
        <mxCell id="Bgxkm3oLTfypVc-OCxU6-6" value="branch#deveopment" style="rounded=0;whiteSpace=wrap;html=1;" vertex="1" parent="Bgxkm3oLTfypVc-OCxU6-2">
          <mxGeometry x="29" y="30" width="120" height="20" as="geometry" />
        </mxCell>
        <mxCell id="Bgxkm3oLTfypVc-OCxU6-4" value="" style="endArrow=classic;html=1;rounded=0;entryX=0.25;entryY=0;entryDx=0;entryDy=0;" edge="1" parent="1" source="Bgxkm3oLTfypVc-OCxU6-51" target="Bgxkm3oLTfypVc-OCxU6-6">
          <mxGeometry width="50" height="50" relative="1" as="geometry">
            <mxPoint x="30" y="-750" as="sourcePoint" />
            <mxPoint x="500" y="-560" as="targetPoint" />
          </mxGeometry>
        </mxCell>
        <mxCell id="Bgxkm3oLTfypVc-OCxU6-5" value="Code push/merge" style="edgeLabel;html=1;align=center;verticalAlign=middle;resizable=0;points=[];" vertex="1" connectable="0" parent="Bgxkm3oLTfypVc-OCxU6-4">
          <mxGeometry x="0.297" relative="1" as="geometry">
            <mxPoint y="-34" as="offset" />
          </mxGeometry>
        </mxCell>
        <mxCell id="Bgxkm3oLTfypVc-OCxU6-20" style="edgeStyle=orthogonalEdgeStyle;rounded=0;orthogonalLoop=1;jettySize=auto;html=1;exitX=0.5;exitY=1;exitDx=0;exitDy=0;entryX=0.5;entryY=0;entryDx=0;entryDy=0;" edge="1" parent="1" source="Bgxkm3oLTfypVc-OCxU6-8" target="Bgxkm3oLTfypVc-OCxU6-19">
          <mxGeometry relative="1" as="geometry" />
        </mxCell>
        <mxCell id="Bgxkm3oLTfypVc-OCxU6-8" value="Build Pipline" style="swimlane;whiteSpace=wrap;html=1;" vertex="1" parent="1">
          <mxGeometry x="150" y="-610" width="180" height="280" as="geometry" />
        </mxCell>
        <mxCell id="Bgxkm3oLTfypVc-OCxU6-12" style="edgeStyle=orthogonalEdgeStyle;rounded=0;orthogonalLoop=1;jettySize=auto;html=1;exitX=0.5;exitY=1;exitDx=0;exitDy=0;entryX=0.5;entryY=0;entryDx=0;entryDy=0;fillColor=#e1d5e7;strokeColor=#9673a6;" edge="1" parent="Bgxkm3oLTfypVc-OCxU6-8" source="Bgxkm3oLTfypVc-OCxU6-9" target="Bgxkm3oLTfypVc-OCxU6-10">
          <mxGeometry relative="1" as="geometry" />
        </mxCell>
        <mxCell id="Bgxkm3oLTfypVc-OCxU6-9" value="Audit code dependencies" style="rounded=0;whiteSpace=wrap;html=1;" vertex="1" parent="Bgxkm3oLTfypVc-OCxU6-8">
          <mxGeometry x="20" y="40" width="140" height="30" as="geometry" />
        </mxCell>
        <mxCell id="Bgxkm3oLTfypVc-OCxU6-13" style="edgeStyle=orthogonalEdgeStyle;rounded=0;orthogonalLoop=1;jettySize=auto;html=1;exitX=0.5;exitY=1;exitDx=0;exitDy=0;entryX=0.5;entryY=0;entryDx=0;entryDy=0;fillColor=#e1d5e7;strokeColor=#9673a6;" edge="1" parent="Bgxkm3oLTfypVc-OCxU6-8" source="Bgxkm3oLTfypVc-OCxU6-10" target="Bgxkm3oLTfypVc-OCxU6-11">
          <mxGeometry relative="1" as="geometry" />
        </mxCell>
        <mxCell id="Bgxkm3oLTfypVc-OCxU6-10" value="Build code" style="rounded=0;whiteSpace=wrap;html=1;" vertex="1" parent="Bgxkm3oLTfypVc-OCxU6-8">
          <mxGeometry x="20" y="85" width="140" height="30" as="geometry" />
        </mxCell>
        <mxCell id="Bgxkm3oLTfypVc-OCxU6-15" style="edgeStyle=orthogonalEdgeStyle;rounded=0;orthogonalLoop=1;jettySize=auto;html=1;exitX=0.5;exitY=1;exitDx=0;exitDy=0;entryX=0.5;entryY=0;entryDx=0;entryDy=0;fillColor=#e1d5e7;strokeColor=#9673a6;" edge="1" parent="Bgxkm3oLTfypVc-OCxU6-8" source="Bgxkm3oLTfypVc-OCxU6-11" target="Bgxkm3oLTfypVc-OCxU6-14">
          <mxGeometry relative="1" as="geometry" />
        </mxCell>
        <mxCell id="Bgxkm3oLTfypVc-OCxU6-11" value="Build image" style="rounded=0;whiteSpace=wrap;html=1;" vertex="1" parent="Bgxkm3oLTfypVc-OCxU6-8">
          <mxGeometry x="20" y="130" width="140" height="30" as="geometry" />
        </mxCell>
        <mxCell id="Bgxkm3oLTfypVc-OCxU6-18" style="edgeStyle=orthogonalEdgeStyle;rounded=0;orthogonalLoop=1;jettySize=auto;html=1;exitX=0.5;exitY=1;exitDx=0;exitDy=0;entryX=0.5;entryY=0;entryDx=0;entryDy=0;fillColor=#e1d5e7;strokeColor=#9673a6;" edge="1" parent="Bgxkm3oLTfypVc-OCxU6-8" source="Bgxkm3oLTfypVc-OCxU6-14" target="Bgxkm3oLTfypVc-OCxU6-17">
          <mxGeometry relative="1" as="geometry" />
        </mxCell>
        <mxCell id="Bgxkm3oLTfypVc-OCxU6-14" value="Audit image" style="rounded=0;whiteSpace=wrap;html=1;" vertex="1" parent="Bgxkm3oLTfypVc-OCxU6-8">
          <mxGeometry x="20" y="180" width="140" height="30" as="geometry" />
        </mxCell>
        <mxCell id="Bgxkm3oLTfypVc-OCxU6-17" value="Tag &amp;amp; Publish image to repository" style="rounded=0;whiteSpace=wrap;html=1;" vertex="1" parent="Bgxkm3oLTfypVc-OCxU6-8">
          <mxGeometry x="20" y="230" width="140" height="40" as="geometry" />
        </mxCell>
        <mxCell id="Bgxkm3oLTfypVc-OCxU6-16" style="edgeStyle=orthogonalEdgeStyle;rounded=0;orthogonalLoop=1;jettySize=auto;html=1;exitX=1;exitY=0.5;exitDx=0;exitDy=0;fillColor=#d5e8d4;strokeColor=#82b366;entryX=0.5;entryY=0;entryDx=0;entryDy=0;" edge="1" parent="1" source="Bgxkm3oLTfypVc-OCxU6-6" target="Bgxkm3oLTfypVc-OCxU6-8">
          <mxGeometry relative="1" as="geometry">
            <mxPoint x="260" y="-630" as="targetPoint" />
            <Array as="points">
              <mxPoint x="240" y="-680" />
            </Array>
          </mxGeometry>
        </mxCell>
        <mxCell id="Bgxkm3oLTfypVc-OCxU6-19" value="Deployment" style="swimlane;whiteSpace=wrap;html=1;" vertex="1" parent="1">
          <mxGeometry x="360" y="-610" width="160" height="240" as="geometry">
            <mxRectangle x="420" y="-640" width="100" height="30" as="alternateBounds" />
          </mxGeometry>
        </mxCell>
        <mxCell id="Bgxkm3oLTfypVc-OCxU6-24" style="edgeStyle=orthogonalEdgeStyle;rounded=0;orthogonalLoop=1;jettySize=auto;html=1;exitX=0.5;exitY=1;exitDx=0;exitDy=0;entryX=0.5;entryY=0;entryDx=0;entryDy=0;fillColor=#e1d5e7;strokeColor=#9673a6;" edge="1" parent="Bgxkm3oLTfypVc-OCxU6-19" source="Bgxkm3oLTfypVc-OCxU6-21" target="Bgxkm3oLTfypVc-OCxU6-22">
          <mxGeometry relative="1" as="geometry" />
        </mxCell>
        <mxCell id="Bgxkm3oLTfypVc-OCxU6-21" value="&lt;div&gt;Create container&lt;/div&gt;&lt;div&gt;(from image)&lt;br&gt;&lt;/div&gt;" style="rounded=0;whiteSpace=wrap;html=1;" vertex="1" parent="Bgxkm3oLTfypVc-OCxU6-19">
          <mxGeometry x="20" y="40" width="120" height="40" as="geometry" />
        </mxCell>
        <mxCell id="Bgxkm3oLTfypVc-OCxU6-25" style="edgeStyle=orthogonalEdgeStyle;rounded=0;orthogonalLoop=1;jettySize=auto;html=1;exitX=0.5;exitY=1;exitDx=0;exitDy=0;entryX=0.5;entryY=0;entryDx=0;entryDy=0;fillColor=#e1d5e7;strokeColor=#9673a6;" edge="1" parent="Bgxkm3oLTfypVc-OCxU6-19" source="Bgxkm3oLTfypVc-OCxU6-22" target="Bgxkm3oLTfypVc-OCxU6-23">
          <mxGeometry relative="1" as="geometry" />
        </mxCell>
        <mxCell id="Bgxkm3oLTfypVc-OCxU6-22" value="Configure container" style="rounded=0;whiteSpace=wrap;html=1;" vertex="1" parent="Bgxkm3oLTfypVc-OCxU6-19">
          <mxGeometry x="20" y="110" width="120" height="40" as="geometry" />
        </mxCell>
        <mxCell id="Bgxkm3oLTfypVc-OCxU6-23" value="Start container" style="rounded=0;whiteSpace=wrap;html=1;" vertex="1" parent="Bgxkm3oLTfypVc-OCxU6-19">
          <mxGeometry x="20" y="180" width="120" height="40" as="geometry" />
        </mxCell>
        <mxCell id="Bgxkm3oLTfypVc-OCxU6-38" value="" style="sketch=0;outlineConnect=0;fontColor=#232F3E;gradientColor=none;fillColor=#8C4FFF;strokeColor=none;dashed=0;verticalLabelPosition=bottom;verticalAlign=top;align=center;html=1;fontSize=12;fontStyle=0;aspect=fixed;pointerEvents=1;shape=mxgraph.aws4.application_load_balancer;" vertex="1" parent="1">
          <mxGeometry x="605" y="-780" width="50" height="50" as="geometry" />
        </mxCell>
        <mxCell id="Bgxkm3oLTfypVc-OCxU6-45" value="&lt;div&gt;EC2&lt;/div&gt;" style="swimlane;whiteSpace=wrap;html=1;" vertex="1" parent="1">
          <mxGeometry x="570" y="-610" width="120" height="290" as="geometry" />
        </mxCell>
        <mxCell id="Bgxkm3oLTfypVc-OCxU6-46" value="" style="sketch=0;outlineConnect=0;fontColor=#232F3E;gradientColor=none;fillColor=#ED7100;strokeColor=none;dashed=0;verticalLabelPosition=bottom;verticalAlign=top;align=center;html=1;fontSize=12;fontStyle=0;aspect=fixed;pointerEvents=1;shape=mxgraph.aws4.container_2;" vertex="1" parent="Bgxkm3oLTfypVc-OCxU6-45">
          <mxGeometry x="35" y="49" width="48" height="31" as="geometry" />
        </mxCell>
        <mxCell id="Bgxkm3oLTfypVc-OCxU6-47" value="" style="sketch=0;outlineConnect=0;fontColor=#232F3E;gradientColor=none;fillColor=#ED7100;strokeColor=none;dashed=0;verticalLabelPosition=bottom;verticalAlign=top;align=center;html=1;fontSize=12;fontStyle=0;aspect=fixed;pointerEvents=1;shape=mxgraph.aws4.container_2;" vertex="1" parent="Bgxkm3oLTfypVc-OCxU6-45">
          <mxGeometry x="35" y="100" width="48" height="31" as="geometry" />
        </mxCell>
        <mxCell id="Bgxkm3oLTfypVc-OCxU6-48" value="" style="sketch=0;outlineConnect=0;fontColor=#232F3E;gradientColor=none;fillColor=#ED7100;strokeColor=none;dashed=0;verticalLabelPosition=bottom;verticalAlign=top;align=center;html=1;fontSize=12;fontStyle=0;aspect=fixed;pointerEvents=1;shape=mxgraph.aws4.container_2;" vertex="1" parent="Bgxkm3oLTfypVc-OCxU6-45">
          <mxGeometry x="35" y="160" width="48" height="31" as="geometry" />
        </mxCell>
        <mxCell id="Bgxkm3oLTfypVc-OCxU6-49" value="" style="sketch=0;outlineConnect=0;fontColor=#232F3E;gradientColor=none;fillColor=#ED7100;strokeColor=none;dashed=0;verticalLabelPosition=bottom;verticalAlign=top;align=center;html=1;fontSize=12;fontStyle=0;aspect=fixed;pointerEvents=1;shape=mxgraph.aws4.container_2;" vertex="1" parent="Bgxkm3oLTfypVc-OCxU6-45">
          <mxGeometry x="35" y="210" width="48" height="31" as="geometry" />
        </mxCell>
        <mxCell id="Bgxkm3oLTfypVc-OCxU6-50" style="edgeStyle=orthogonalEdgeStyle;rounded=0;orthogonalLoop=1;jettySize=auto;html=1;exitX=0.5;exitY=1;exitDx=0;exitDy=0;" edge="1" parent="1" source="Bgxkm3oLTfypVc-OCxU6-19" target="Bgxkm3oLTfypVc-OCxU6-49">
          <mxGeometry relative="1" as="geometry" />
        </mxCell>
        <mxCell id="Bgxkm3oLTfypVc-OCxU6-51" value="" style="sketch=0;outlineConnect=0;fontColor=#232F3E;gradientColor=none;fillColor=#232F3D;strokeColor=none;dashed=0;verticalLabelPosition=bottom;verticalAlign=top;align=center;html=1;fontSize=12;fontStyle=0;aspect=fixed;pointerEvents=1;shape=mxgraph.aws4.user;" vertex="1" parent="1">
          <mxGeometry x="180" y="-827" width="38" height="38" as="geometry" />
        </mxCell>
        <mxCell id="Bgxkm3oLTfypVc-OCxU6-52" value="" style="edgeStyle=orthogonalEdgeStyle;html=1;endArrow=block;elbow=vertical;startArrow=none;endFill=1;strokeColor=#545B64;rounded=0;" edge="1" parent="1" target="Bgxkm3oLTfypVc-OCxU6-38">
          <mxGeometry width="100" relative="1" as="geometry">
            <mxPoint x="200" y="-810" as="sourcePoint" />
            <mxPoint x="300" y="-810" as="targetPoint" />
          </mxGeometry>
        </mxCell>
        <mxCell id="Bgxkm3oLTfypVc-OCxU6-53" value="&lt;div&gt;browses to&lt;/div&gt;&lt;div&gt;&lt;br&gt;&lt;/div&gt;" style="edgeLabel;html=1;align=center;verticalAlign=middle;resizable=0;points=[];" vertex="1" connectable="0" parent="Bgxkm3oLTfypVc-OCxU6-52">
          <mxGeometry x="-0.1523" y="-2" relative="1" as="geometry">
            <mxPoint as="offset" />
          </mxGeometry>
        </mxCell>
        <mxCell id="Bgxkm3oLTfypVc-OCxU6-55" value="" style="edgeStyle=orthogonalEdgeStyle;html=1;endArrow=none;elbow=vertical;startArrow=block;startFill=1;strokeColor=#545B64;rounded=0;" edge="1" parent="1" source="Bgxkm3oLTfypVc-OCxU6-47" target="Bgxkm3oLTfypVc-OCxU6-38">
          <mxGeometry width="100" relative="1" as="geometry">
            <mxPoint x="763" y="-494.5" as="sourcePoint" />
            <mxPoint x="740" y="-730.0005681689053" as="targetPoint" />
            <Array as="points">
              <mxPoint x="730" y="-494" />
              <mxPoint x="730" y="-755" />
            </Array>
          </mxGeometry>
        </mxCell>
        <mxCell id="Bgxkm3oLTfypVc-OCxU6-54" value="" style="edgeStyle=orthogonalEdgeStyle;html=1;endArrow=none;elbow=vertical;startArrow=block;startFill=1;strokeColor=#545B64;rounded=0;" edge="1" parent="1" source="Bgxkm3oLTfypVc-OCxU6-46" target="Bgxkm3oLTfypVc-OCxU6-38">
          <mxGeometry width="100" relative="1" as="geometry">
            <mxPoint x="710" y="-600" as="sourcePoint" />
            <mxPoint x="750" y="-550" as="targetPoint" />
            <Array as="points">
              <mxPoint x="720" y="-545" />
              <mxPoint x="720" y="-755" />
            </Array>
          </mxGeometry>
        </mxCell>
        <mxCell id="Bgxkm3oLTfypVc-OCxU6-56" value="" style="edgeStyle=orthogonalEdgeStyle;html=1;endArrow=none;elbow=vertical;startArrow=block;startFill=1;strokeColor=#545B64;rounded=0;" edge="1" parent="1" source="Bgxkm3oLTfypVc-OCxU6-48" target="Bgxkm3oLTfypVc-OCxU6-38">
          <mxGeometry width="100" relative="1" as="geometry">
            <mxPoint x="760" y="-690" as="sourcePoint" />
            <mxPoint x="440" y="-560" as="targetPoint" />
            <Array as="points">
              <mxPoint x="740" y="-434" />
              <mxPoint x="740" y="-755" />
            </Array>
          </mxGeometry>
        </mxCell>
        <mxCell id="Bgxkm3oLTfypVc-OCxU6-57" value="" style="edgeStyle=orthogonalEdgeStyle;html=1;endArrow=none;elbow=vertical;startArrow=block;startFill=1;strokeColor=#545B64;rounded=0;" edge="1" parent="1" source="Bgxkm3oLTfypVc-OCxU6-49" target="Bgxkm3oLTfypVc-OCxU6-38">
          <mxGeometry width="100" relative="1" as="geometry">
            <mxPoint x="690" y="-790" as="sourcePoint" />
            <mxPoint x="790" y="-790" as="targetPoint" />
            <Array as="points">
              <mxPoint x="750" y="-384" />
              <mxPoint x="750" y="-755" />
            </Array>
          </mxGeometry>
        </mxCell>
      </root>
    </mxGraphModel>
  </diagram>
</mxfile>
